<?xml version="1.0" encoding="UTF-8" standalone="no"?>
<!DOCTYPE svg PUBLIC "-//W3C//DTD SVG 1.1//EN"
 "http://www.w3.org/Graphics/SVG/1.1/DTD/svg11.dtd">
<!-- Generated by graphviz version 2.47.0 (20210316.0004)
 -->
<!-- Title: dependencies Pages: 1 -->
<svg width="1778pt" height="284pt"
 viewBox="0.00 0.00 1778.00 284.00" xmlns="http://www.w3.org/2000/svg" xmlns:xlink="http://www.w3.org/1999/xlink">
<g id="graph0" class="graph" transform="scale(1 1) rotate(0) translate(4 280)">
<title>dependencies</title>
<polygon fill="white" stroke="transparent" points="-4,4 -4,-280 1774,-280 1774,4 -4,4"/>
<text text-anchor="start" x="864.01" y="-42.4" font-family="Times-12" font-weight="bold" font-size="14.00">Legend</text>
<polygon fill="#ffffb3" stroke="transparent" points="651,-10 651,-30 671,-30 671,-10 651,-10"/>
<text text-anchor="start" x="674.63" y="-15.4" font-family="Times-12" font-size="14.00"> &#160;Declarations</text>
<polygon fill="#8dd3c7" stroke="transparent" points="764,-10 764,-30 784,-30 784,-10 764,-10"/>
<text text-anchor="start" x="787.73" y="-15.4" font-family="Times-12" font-size="14.00"> &#160;Module</text>
<polygon fill="#80b1d3" stroke="transparent" points="850,-10 850,-30 870,-30 870,-10 850,-10"/>
<text text-anchor="start" x="873.78" y="-15.4" font-family="Times-12" font-size="14.00"> &#160;Bootstrap</text>
<polygon fill="#fdb462" stroke="transparent" points="947,-10 947,-30 967,-30 967,-10 947,-10"/>
<text text-anchor="start" x="970.67" y="-15.4" font-family="Times-12" font-size="14.00"> &#160;Providers</text>
<polygon fill="#fb8072" stroke="transparent" points="1043,-10 1043,-30 1063,-30 1063,-10 1043,-10"/>
<text text-anchor="start" x="1066.73" y="-15.4" font-family="Times-12" font-size="14.00"> &#160;Exports</text>
<g id="clust1" class="cluster">
<title>cluster_AppModule</title>
<polygon fill="none" stroke="black" stroke-dasharray="1,5" points="8,-70 8,-268 1762,-268 1762,-70 8,-70"/>
</g>
<g id="clust2" class="cluster">
<title>cluster_AppModule_declarations</title>
<polygon fill="none" stroke="black" points="168,-78 168,-130 1754,-130 1754,-78 168,-78"/>
</g>
<g id="clust14" class="cluster">
<title>cluster_AppModule_imports</title>
<polygon fill="none" stroke="black" points="16,-78 16,-130 160,-130 160,-78 16,-78"/>
</g>
<g id="clust16" class="cluster">
<title>cluster_AppModule_bootstrap</title>
<polygon fill="none" stroke="black" points="862,-208 862,-260 986,-260 986,-208 862,-208"/>
</g>
<!-- AdminComponent -->
<g id="node1" class="node">
<title>AdminComponent</title>
<polygon fill="#ffffb3" stroke="black" points="1746.22,-122 1625.78,-122 1625.78,-86 1746.22,-86 1746.22,-122"/>
<text text-anchor="middle" x="1686" y="-99.8" font-family="Times,serif" font-size="14.00">AdminComponent</text>
</g>
<!-- AppModule -->
<g id="node12" class="node">
<title>AppModule</title>
<polygon fill="#8dd3c7" stroke="black" points="965.66,-187 962.66,-191 941.66,-191 938.66,-187 882.34,-187 882.34,-151 965.66,-151 965.66,-187"/>
<text text-anchor="middle" x="924" y="-164.8" font-family="Times,serif" font-size="14.00">AppModule</text>
</g>
<!-- AdminComponent&#45;&gt;AppModule -->
<g id="edge1" class="edge">
<title>AdminComponent&#45;&gt;AppModule</title>
<path fill="none" stroke="black" d="M1686,-122.25C1686,-145.02 1686,-181 1686,-181 1686,-181 975.78,-181 975.78,-181"/>
<polygon fill="black" stroke="black" points="975.78,-177.5 965.78,-181 975.78,-184.5 975.78,-177.5"/>
</g>
<!-- AppComponent -->
<g id="node2" class="node">
<title>AppComponent</title>
<polygon fill="#ffffb3" stroke="black" points="1607.94,-122 1502.06,-122 1502.06,-86 1607.94,-86 1607.94,-122"/>
<text text-anchor="middle" x="1555" y="-99.8" font-family="Times,serif" font-size="14.00">AppComponent</text>
</g>
<!-- AppComponent&#45;&gt;AppModule -->
<g id="edge2" class="edge">
<title>AppComponent&#45;&gt;AppModule</title>
<path fill="none" stroke="black" d="M1555,-122.28C1555,-143.32 1555,-175 1555,-175 1555,-175 975.89,-175 975.89,-175"/>
<polygon fill="black" stroke="black" points="975.89,-171.5 965.89,-175 975.89,-178.5 975.89,-171.5"/>
</g>
<!-- CategoriaComponent -->
<g id="node3" class="node">
<title>CategoriaComponent</title>
<polygon fill="#ffffb3" stroke="black" points="1483.75,-122 1348.25,-122 1348.25,-86 1483.75,-86 1483.75,-122"/>
<text text-anchor="middle" x="1416" y="-99.8" font-family="Times,serif" font-size="14.00">CategoriaComponent</text>
</g>
<!-- CategoriaComponent&#45;&gt;AppModule -->
<g id="edge3" class="edge">
<title>CategoriaComponent&#45;&gt;AppModule</title>
<path fill="none" stroke="black" d="M1416,-122.11C1416,-141.34 1416,-169 1416,-169 1416,-169 975.95,-169 975.95,-169"/>
<polygon fill="black" stroke="black" points="975.95,-165.5 965.95,-169 975.95,-172.5 975.95,-165.5"/>
</g>
<!-- FavoritesComponent -->
<g id="node4" class="node">
<title>FavoritesComponent</title>
<polygon fill="#ffffb3" stroke="black" points="1329.93,-122 1196.07,-122 1196.07,-86 1329.93,-86 1329.93,-122"/>
<text text-anchor="middle" x="1263" y="-99.8" font-family="Times,serif" font-size="14.00">FavoritesComponent</text>
</g>
<!-- FavoritesComponent&#45;&gt;AppModule -->
<g id="edge4" class="edge">
<title>FavoritesComponent&#45;&gt;AppModule</title>
<path fill="none" stroke="black" d="M1263,-122.02C1263,-139.37 1263,-163 1263,-163 1263,-163 975.91,-163 975.91,-163"/>
<polygon fill="black" stroke="black" points="975.91,-159.5 965.91,-163 975.91,-166.5 975.91,-159.5"/>
</g>
<!-- HomeComponent -->
<g id="node5" class="node">
<title>HomeComponent</title>
<polygon fill="#ffffb3" stroke="black" points="1178.55,-122 1063.45,-122 1063.45,-86 1178.55,-86 1178.55,-122"/>
<text text-anchor="middle" x="1121" y="-99.8" font-family="Times,serif" font-size="14.00">HomeComponent</text>
</g>
<!-- HomeComponent&#45;&gt;AppModule -->
<g id="edge5" class="edge">
<title>HomeComponent&#45;&gt;AppModule</title>
<path fill="none" stroke="black" d="M1121,-122.24C1121,-137.57 1121,-157 1121,-157 1121,-157 975.78,-157 975.78,-157"/>
<polygon fill="black" stroke="black" points="975.78,-153.5 965.78,-157 975.78,-160.5 975.78,-153.5"/>
</g>
<!-- LoginComponent -->
<g id="node6" class="node">
<title>LoginComponent</title>
<polygon fill="#ffffb3" stroke="black" points="1045.28,-122 930.72,-122 930.72,-86 1045.28,-86 1045.28,-122"/>
<text text-anchor="middle" x="988" y="-99.8" font-family="Times,serif" font-size="14.00">LoginComponent</text>
</g>
<!-- LoginComponent&#45;&gt;AppModule -->
<g id="edge6" class="edge">
<title>LoginComponent&#45;&gt;AppModule</title>
<path fill="none" stroke="black" d="M948.22,-122.11C948.22,-122.11 948.22,-140.99 948.22,-140.99"/>
<polygon fill="black" stroke="black" points="944.72,-140.99 948.22,-150.99 951.72,-140.99 944.72,-140.99"/>
</g>
<!-- NavComponent -->
<g id="node7" class="node">
<title>NavComponent</title>
<polygon fill="#ffffb3" stroke="black" points="912.15,-122 807.85,-122 807.85,-86 912.15,-86 912.15,-122"/>
<text text-anchor="middle" x="860" y="-99.8" font-family="Times,serif" font-size="14.00">NavComponent</text>
</g>
<!-- NavComponent&#45;&gt;AppModule -->
<g id="edge7" class="edge">
<title>NavComponent&#45;&gt;AppModule</title>
<path fill="none" stroke="black" d="M897.25,-122.11C897.25,-122.11 897.25,-140.99 897.25,-140.99"/>
<polygon fill="black" stroke="black" points="893.75,-140.99 897.25,-150.99 900.75,-140.99 893.75,-140.99"/>
</g>
<!-- ProfileComponent -->
<g id="node8" class="node">
<title>ProfileComponent</title>
<polygon fill="#ffffb3" stroke="black" points="789.93,-122 670.07,-122 670.07,-86 789.93,-86 789.93,-122"/>
<text text-anchor="middle" x="730" y="-99.8" font-family="Times,serif" font-size="14.00">ProfileComponent</text>
</g>
<!-- ProfileComponent&#45;&gt;AppModule -->
<g id="edge8" class="edge">
<title>ProfileComponent&#45;&gt;AppModule</title>
<path fill="none" stroke="black" d="M730,-122.24C730,-137.57 730,-157 730,-157 730,-157 871.9,-157 871.9,-157"/>
<polygon fill="black" stroke="black" points="871.9,-160.5 881.9,-157 871.9,-153.5 871.9,-160.5"/>
</g>
<!-- RecetaCardComponent -->
<g id="node9" class="node">
<title>RecetaCardComponent</title>
<polygon fill="#ffffb3" stroke="black" points="652.13,-122 505.87,-122 505.87,-86 652.13,-86 652.13,-122"/>
<text text-anchor="middle" x="579" y="-99.8" font-family="Times,serif" font-size="14.00">RecetaCardComponent</text>
</g>
<!-- RecetaCardComponent&#45;&gt;AppModule -->
<g id="edge9" class="edge">
<title>RecetaCardComponent&#45;&gt;AppModule</title>
<path fill="none" stroke="black" d="M579,-122.02C579,-139.37 579,-163 579,-163 579,-163 872.04,-163 872.04,-163"/>
<polygon fill="black" stroke="black" points="872.04,-166.5 882.04,-163 872.04,-159.5 872.04,-166.5"/>
</g>
<!-- RegisterComponent -->
<g id="node10" class="node">
<title>RegisterComponent</title>
<polygon fill="#ffffb3" stroke="black" points="487.98,-122 360.02,-122 360.02,-86 487.98,-86 487.98,-122"/>
<text text-anchor="middle" x="424" y="-99.8" font-family="Times,serif" font-size="14.00">RegisterComponent</text>
</g>
<!-- RegisterComponent&#45;&gt;AppModule -->
<g id="edge10" class="edge">
<title>RegisterComponent&#45;&gt;AppModule</title>
<path fill="none" stroke="black" d="M424,-122.11C424,-141.34 424,-169 424,-169 424,-169 872.23,-169 872.23,-169"/>
<polygon fill="black" stroke="black" points="872.23,-172.5 882.23,-169 872.23,-165.5 872.23,-172.5"/>
</g>
<!-- ResetPasswordComponent -->
<g id="node11" class="node">
<title>ResetPasswordComponent</title>
<polygon fill="#ffffb3" stroke="black" points="342.09,-122 175.91,-122 175.91,-86 342.09,-86 342.09,-122"/>
<text text-anchor="middle" x="259" y="-99.8" font-family="Times,serif" font-size="14.00">ResetPasswordComponent</text>
</g>
<!-- ResetPasswordComponent&#45;&gt;AppModule -->
<g id="edge11" class="edge">
<title>ResetPasswordComponent&#45;&gt;AppModule</title>
<path fill="none" stroke="black" d="M259,-122.28C259,-143.32 259,-175 259,-175 259,-175 872.15,-175 872.15,-175"/>
<polygon fill="black" stroke="black" points="872.15,-178.5 882.15,-175 872.15,-171.5 872.15,-178.5"/>
</g>
<!-- AppComponent  -->
<g id="node14" class="node">
<title>AppComponent </title>
<polygon fill="#80b1d3" stroke="black" points="978.44,-252 869.56,-252 869.56,-216 978.44,-216 978.44,-252"/>
<text text-anchor="middle" x="924" y="-229.8" font-family="Times,serif" font-size="14.00">AppComponent </text>
</g>
<!-- AppModule&#45;&gt;AppComponent  -->
<g id="edge13" class="edge">
<title>AppModule&#45;&gt;AppComponent </title>
<path fill="none" stroke="black" stroke-dasharray="1,5" d="M924,-187.11C924,-187.11 924,-205.99 924,-205.99"/>
<polygon fill="black" stroke="black" points="920.5,-205.99 924,-215.99 927.5,-205.99 920.5,-205.99"/>
</g>
<!-- AppRoutingModule -->
<g id="node13" class="node">
<title>AppRoutingModule</title>
<polygon fill="#8dd3c7" stroke="black" points="152.27,-122 149.27,-126 128.27,-126 125.27,-122 23.73,-122 23.73,-86 152.27,-86 152.27,-122"/>
<text text-anchor="middle" x="88" y="-99.8" font-family="Times,serif" font-size="14.00">AppRoutingModule</text>
</g>
<!-- AppRoutingModule&#45;&gt;AppModule -->
<g id="edge12" class="edge">
<title>AppRoutingModule&#45;&gt;AppModule</title>
<path fill="none" stroke="black" d="M88,-122.25C88,-145.02 88,-181 88,-181 88,-181 872.26,-181 872.26,-181"/>
<polygon fill="black" stroke="black" points="872.26,-184.5 882.26,-181 872.26,-177.5 872.26,-184.5"/>
</g>
</g>
</svg>
