<?xml version="1.0" encoding="UTF-8" standalone="no"?>
<!DOCTYPE svg PUBLIC "-//W3C//DTD SVG 1.1//EN"
 "http://www.w3.org/Graphics/SVG/1.1/DTD/svg11.dtd">
<!-- Generated by graphviz version 2.47.0 (20210316.0004)
 -->
<!-- Title: dependencies Pages: 1 -->
<svg width="1778pt" height="284pt"
 viewBox="0.00 0.00 1778.00 284.00" xmlns="http://www.w3.org/2000/svg" xmlns:xlink="http://www.w3.org/1999/xlink">
<g id="graph0" class="graph" transform="scale(1 1) rotate(0) translate(4 280)">
<title>dependencies</title>
<polygon fill="white" stroke="transparent" points="-4,4 -4,-280 1774,-280 1774,4 -4,4"/>
<text text-anchor="start" x="864.01" y="-42.4" font-family="Times-12" font-weight="bold" font-size="14.00">Legend</text>
<polygon fill="#ffffb3" stroke="transparent" points="651,-10 651,-30 671,-30 671,-10 651,-10"/>
<text text-anchor="start" x="674.63" y="-15.4" font-family="Times-12" font-size="14.00"> &#160;Declarations</text>
<polygon fill="#8dd3c7" stroke="transparent" points="764,-10 764,-30 784,-30 784,-10 764,-10"/>
<text text-anchor="start" x="787.73" y="-15.4" font-family="Times-12" font-size="14.00"> &#160;Module</text>
<polygon fill="#80b1d3" stroke="transparent" points="850,-10 850,-30 870,-30 870,-10 850,-10"/>
<text text-anchor="start" x="873.78" y="-15.4" font-family="Times-12" font-size="14.00"> &#160;Bootstrap</text>
<polygon fill="#fdb462" stroke="transparent" points="947,-10 947,-30 967,-30 967,-10 947,-10"/>
<text text-anchor="start" x="970.67" y="-15.4" font-family="Times-12" font-size="14.00"> &#160;Providers</text>
<polygon fill="#fb8072" stroke="transparent" points="1043,-10 1043,-30 1063,-30 1063,-10 1043,-10"/>
<text text-anchor="start" x="1066.73" y="-15.4" font-family="Times-12" font-size="14.00"> &#160;Exports</text>
<g id="clust1" class="cluster">
<title>cluster_AppModule</title>
<polygon fill="none" stroke="black" stroke-dasharray="1,5" points="8,-70 8,-268 1762,-268 1762,-70 8,-70"/>
</g>
<g id="clust14" class="cluster">
<title>cluster_AppModule_imports</title>
<polygon fill="none" stroke="black" points="1610,-78 1610,-130 1754,-130 1754,-78 1610,-78"/>
</g>
<g id="clust16" class="cluster">
<title>cluster_AppModule_bootstrap</title>
<polygon fill="none" stroke="black" points="840,-208 840,-260 964,-260 964,-208 840,-208"/>
</g>
<g id="clust2" class="cluster">
<title>cluster_AppModule_declarations</title>
<polygon fill="none" stroke="black" points="16,-78 16,-130 1602,-130 1602,-78 16,-78"/>
</g>
<!-- AdminComponent -->
<g id="node1" class="node">
<title>AdminComponent</title>
<polygon fill="#ffffb3" stroke="black" points="1594.22,-122 1473.78,-122 1473.78,-86 1594.22,-86 1594.22,-122"/>
<text text-anchor="middle" x="1534" y="-99.8" font-family="Times,serif" font-size="14.00">AdminComponent</text>
</g>
<!-- AppModule -->
<g id="node12" class="node">
<title>AppModule</title>
<polygon fill="#8dd3c7" stroke="black" points="943.66,-187 940.66,-191 919.66,-191 916.66,-187 860.34,-187 860.34,-151 943.66,-151 943.66,-187"/>
<text text-anchor="middle" x="902" y="-164.8" font-family="Times,serif" font-size="14.00">AppModule</text>
</g>
<!-- AdminComponent&#45;&gt;AppModule -->
<g id="edge1" class="edge">
<title>AdminComponent&#45;&gt;AppModule</title>
<path fill="none" stroke="black" d="M1534,-122.28C1534,-143.32 1534,-175 1534,-175 1534,-175 953.96,-175 953.96,-175"/>
<polygon fill="black" stroke="black" points="953.96,-171.5 943.96,-175 953.96,-178.5 953.96,-171.5"/>
</g>
<!-- AppComponent -->
<g id="node2" class="node">
<title>AppComponent</title>
<polygon fill="#ffffb3" stroke="black" points="1455.94,-122 1350.06,-122 1350.06,-86 1455.94,-86 1455.94,-122"/>
<text text-anchor="middle" x="1403" y="-99.8" font-family="Times,serif" font-size="14.00">AppComponent</text>
</g>
<!-- AppComponent&#45;&gt;AppModule -->
<g id="edge2" class="edge">
<title>AppComponent&#45;&gt;AppModule</title>
<path fill="none" stroke="black" d="M1403,-122.11C1403,-141.34 1403,-169 1403,-169 1403,-169 953.85,-169 953.85,-169"/>
<polygon fill="black" stroke="black" points="953.85,-165.5 943.85,-169 953.85,-172.5 953.85,-165.5"/>
</g>
<!-- CategoriaComponent -->
<g id="node3" class="node">
<title>CategoriaComponent</title>
<polygon fill="#ffffb3" stroke="black" points="1331.75,-122 1196.25,-122 1196.25,-86 1331.75,-86 1331.75,-122"/>
<text text-anchor="middle" x="1264" y="-99.8" font-family="Times,serif" font-size="14.00">CategoriaComponent</text>
</g>
<!-- CategoriaComponent&#45;&gt;AppModule -->
<g id="edge3" class="edge">
<title>CategoriaComponent&#45;&gt;AppModule</title>
<path fill="none" stroke="black" d="M1264,-122.02C1264,-139.37 1264,-163 1264,-163 1264,-163 953.88,-163 953.88,-163"/>
<polygon fill="black" stroke="black" points="953.88,-159.5 943.88,-163 953.88,-166.5 953.88,-159.5"/>
</g>
<!-- FavoritesComponent -->
<g id="node4" class="node">
<title>FavoritesComponent</title>
<polygon fill="#ffffb3" stroke="black" points="1177.93,-122 1044.07,-122 1044.07,-86 1177.93,-86 1177.93,-122"/>
<text text-anchor="middle" x="1111" y="-99.8" font-family="Times,serif" font-size="14.00">FavoritesComponent</text>
</g>
<!-- FavoritesComponent&#45;&gt;AppModule -->
<g id="edge4" class="edge">
<title>FavoritesComponent&#45;&gt;AppModule</title>
<path fill="none" stroke="black" d="M1111,-122.24C1111,-137.57 1111,-157 1111,-157 1111,-157 953.79,-157 953.79,-157"/>
<polygon fill="black" stroke="black" points="953.79,-153.5 943.79,-157 953.79,-160.5 953.79,-153.5"/>
</g>
<!-- HomeComponent -->
<g id="node5" class="node">
<title>HomeComponent</title>
<polygon fill="#ffffb3" stroke="black" points="1026.55,-122 911.45,-122 911.45,-86 1026.55,-86 1026.55,-122"/>
<text text-anchor="middle" x="969" y="-99.8" font-family="Times,serif" font-size="14.00">HomeComponent</text>
</g>
<!-- HomeComponent&#45;&gt;AppModule -->
<g id="edge5" class="edge">
<title>HomeComponent&#45;&gt;AppModule</title>
<path fill="none" stroke="black" d="M927.53,-122.11C927.53,-122.11 927.53,-140.99 927.53,-140.99"/>
<polygon fill="black" stroke="black" points="924.03,-140.99 927.53,-150.99 931.03,-140.99 924.03,-140.99"/>
</g>
<!-- LoginComponent -->
<g id="node6" class="node">
<title>LoginComponent</title>
<polygon fill="#ffffb3" stroke="black" points="893.28,-122 778.72,-122 778.72,-86 893.28,-86 893.28,-122"/>
<text text-anchor="middle" x="836" y="-99.8" font-family="Times,serif" font-size="14.00">LoginComponent</text>
</g>
<!-- LoginComponent&#45;&gt;AppModule -->
<g id="edge6" class="edge">
<title>LoginComponent&#45;&gt;AppModule</title>
<path fill="none" stroke="black" d="M876.78,-122.11C876.78,-122.11 876.78,-140.99 876.78,-140.99"/>
<polygon fill="black" stroke="black" points="873.28,-140.99 876.78,-150.99 880.28,-140.99 873.28,-140.99"/>
</g>
<!-- NavComponent -->
<g id="node7" class="node">
<title>NavComponent</title>
<polygon fill="#ffffb3" stroke="black" points="760.15,-122 655.85,-122 655.85,-86 760.15,-86 760.15,-122"/>
<text text-anchor="middle" x="708" y="-99.8" font-family="Times,serif" font-size="14.00">NavComponent</text>
</g>
<!-- NavComponent&#45;&gt;AppModule -->
<g id="edge7" class="edge">
<title>NavComponent&#45;&gt;AppModule</title>
<path fill="none" stroke="black" d="M708,-122.24C708,-137.57 708,-157 708,-157 708,-157 849.9,-157 849.9,-157"/>
<polygon fill="black" stroke="black" points="849.9,-160.5 859.9,-157 849.9,-153.5 849.9,-160.5"/>
</g>
<!-- ProfileComponent -->
<g id="node8" class="node">
<title>ProfileComponent</title>
<polygon fill="#ffffb3" stroke="black" points="637.93,-122 518.07,-122 518.07,-86 637.93,-86 637.93,-122"/>
<text text-anchor="middle" x="578" y="-99.8" font-family="Times,serif" font-size="14.00">ProfileComponent</text>
</g>
<!-- ProfileComponent&#45;&gt;AppModule -->
<g id="edge8" class="edge">
<title>ProfileComponent&#45;&gt;AppModule</title>
<path fill="none" stroke="black" d="M578,-122.02C578,-139.37 578,-163 578,-163 578,-163 850.31,-163 850.31,-163"/>
<polygon fill="black" stroke="black" points="850.31,-166.5 860.31,-163 850.31,-159.5 850.31,-166.5"/>
</g>
<!-- RecetaCardComponent -->
<g id="node9" class="node">
<title>RecetaCardComponent</title>
<polygon fill="#ffffb3" stroke="black" points="500.13,-122 353.87,-122 353.87,-86 500.13,-86 500.13,-122"/>
<text text-anchor="middle" x="427" y="-99.8" font-family="Times,serif" font-size="14.00">RecetaCardComponent</text>
</g>
<!-- RecetaCardComponent&#45;&gt;AppModule -->
<g id="edge9" class="edge">
<title>RecetaCardComponent&#45;&gt;AppModule</title>
<path fill="none" stroke="black" d="M427,-122.11C427,-141.34 427,-169 427,-169 427,-169 850.26,-169 850.26,-169"/>
<polygon fill="black" stroke="black" points="850.26,-172.5 860.26,-169 850.26,-165.5 850.26,-172.5"/>
</g>
<!-- RegisterComponent -->
<g id="node10" class="node">
<title>RegisterComponent</title>
<polygon fill="#ffffb3" stroke="black" points="335.98,-122 208.02,-122 208.02,-86 335.98,-86 335.98,-122"/>
<text text-anchor="middle" x="272" y="-99.8" font-family="Times,serif" font-size="14.00">RegisterComponent</text>
</g>
<!-- RegisterComponent&#45;&gt;AppModule -->
<g id="edge10" class="edge">
<title>RegisterComponent&#45;&gt;AppModule</title>
<path fill="none" stroke="black" d="M272,-122.28C272,-143.32 272,-175 272,-175 272,-175 850.18,-175 850.18,-175"/>
<polygon fill="black" stroke="black" points="850.18,-178.5 860.18,-175 850.18,-171.5 850.18,-178.5"/>
</g>
<!-- ResetPasswordComponent -->
<g id="node11" class="node">
<title>ResetPasswordComponent</title>
<polygon fill="#ffffb3" stroke="black" points="190.09,-122 23.91,-122 23.91,-86 190.09,-86 190.09,-122"/>
<text text-anchor="middle" x="107" y="-99.8" font-family="Times,serif" font-size="14.00">ResetPasswordComponent</text>
</g>
<!-- ResetPasswordComponent&#45;&gt;AppModule -->
<g id="edge11" class="edge">
<title>ResetPasswordComponent&#45;&gt;AppModule</title>
<path fill="none" stroke="black" d="M107,-122.25C107,-145.02 107,-181 107,-181 107,-181 850.1,-181 850.1,-181"/>
<polygon fill="black" stroke="black" points="850.1,-184.5 860.1,-181 850.1,-177.5 850.1,-184.5"/>
</g>
<!-- AppComponent  -->
<g id="node14" class="node">
<title>AppComponent </title>
<polygon fill="#80b1d3" stroke="black" points="956.44,-252 847.56,-252 847.56,-216 956.44,-216 956.44,-252"/>
<text text-anchor="middle" x="902" y="-229.8" font-family="Times,serif" font-size="14.00">AppComponent </text>
</g>
<!-- AppModule&#45;&gt;AppComponent  -->
<g id="edge13" class="edge">
<title>AppModule&#45;&gt;AppComponent </title>
<path fill="none" stroke="black" stroke-dasharray="1,5" d="M902,-187.11C902,-187.11 902,-205.99 902,-205.99"/>
<polygon fill="black" stroke="black" points="898.5,-205.99 902,-215.99 905.5,-205.99 898.5,-205.99"/>
</g>
<!-- AppRoutingModule -->
<g id="node13" class="node">
<title>AppRoutingModule</title>
<polygon fill="#8dd3c7" stroke="black" points="1746.27,-122 1743.27,-126 1722.27,-126 1719.27,-122 1617.73,-122 1617.73,-86 1746.27,-86 1746.27,-122"/>
<text text-anchor="middle" x="1682" y="-99.8" font-family="Times,serif" font-size="14.00">AppRoutingModule</text>
</g>
<!-- AppRoutingModule&#45;&gt;AppModule -->
<g id="edge12" class="edge">
<title>AppRoutingModule&#45;&gt;AppModule</title>
<path fill="none" stroke="black" d="M1682,-122.25C1682,-145.02 1682,-181 1682,-181 1682,-181 953.66,-181 953.66,-181"/>
<polygon fill="black" stroke="black" points="953.66,-177.5 943.66,-181 953.66,-184.5 953.66,-177.5"/>
</g>
</g>
</svg>
