<?xml version="1.0" encoding="UTF-8" standalone="no"?>
<!DOCTYPE svg PUBLIC "-//W3C//DTD SVG 1.1//EN"
 "http://www.w3.org/Graphics/SVG/1.1/DTD/svg11.dtd">
<!-- Generated by graphviz version 2.47.0 (20210316.0004)
 -->
<!-- Title: dependencies Pages: 1 -->
<svg width="1910pt" height="284pt"
 viewBox="0.00 0.00 1910.00 284.00" xmlns="http://www.w3.org/2000/svg" xmlns:xlink="http://www.w3.org/1999/xlink">
<g id="graph0" class="graph" transform="scale(1 1) rotate(0) translate(4 280)">
<title>dependencies</title>
<polygon fill="white" stroke="transparent" points="-4,4 -4,-280 1906,-280 1906,4 -4,4"/>
<text text-anchor="start" x="930.01" y="-42.4" font-family="Times-12" font-weight="bold" font-size="14.00">Legend</text>
<polygon fill="#ffffb3" stroke="transparent" points="717,-10 717,-30 737,-30 737,-10 717,-10"/>
<text text-anchor="start" x="740.63" y="-15.4" font-family="Times-12" font-size="14.00"> &#160;Declarations</text>
<polygon fill="#8dd3c7" stroke="transparent" points="830,-10 830,-30 850,-30 850,-10 830,-10"/>
<text text-anchor="start" x="853.73" y="-15.4" font-family="Times-12" font-size="14.00"> &#160;Module</text>
<polygon fill="#80b1d3" stroke="transparent" points="916,-10 916,-30 936,-30 936,-10 916,-10"/>
<text text-anchor="start" x="939.78" y="-15.4" font-family="Times-12" font-size="14.00"> &#160;Bootstrap</text>
<polygon fill="#fdb462" stroke="transparent" points="1013,-10 1013,-30 1033,-30 1033,-10 1013,-10"/>
<text text-anchor="start" x="1036.67" y="-15.4" font-family="Times-12" font-size="14.00"> &#160;Providers</text>
<polygon fill="#fb8072" stroke="transparent" points="1109,-10 1109,-30 1129,-30 1129,-10 1109,-10"/>
<text text-anchor="start" x="1132.73" y="-15.4" font-family="Times-12" font-size="14.00"> &#160;Exports</text>
<g id="clust1" class="cluster">
<title>cluster_AppModule</title>
<polygon fill="none" stroke="black" stroke-dasharray="1,5" points="8,-70 8,-268 1894,-268 1894,-70 8,-70"/>
</g>
<g id="clust2" class="cluster">
<title>cluster_AppModule_declarations</title>
<polygon fill="none" stroke="black" points="168,-78 168,-130 1886,-130 1886,-78 168,-78"/>
</g>
<g id="clust15" class="cluster">
<title>cluster_AppModule_imports</title>
<polygon fill="none" stroke="black" points="16,-78 16,-130 160,-130 160,-78 16,-78"/>
</g>
<g id="clust17" class="cluster">
<title>cluster_AppModule_bootstrap</title>
<polygon fill="none" stroke="black" points="926,-208 926,-260 1050,-260 1050,-208 926,-208"/>
</g>
<!-- AdminComponent -->
<g id="node1" class="node">
<title>AdminComponent</title>
<polygon fill="#ffffb3" stroke="black" points="1878.22,-122 1757.78,-122 1757.78,-86 1878.22,-86 1878.22,-122"/>
<text text-anchor="middle" x="1818" y="-99.8" font-family="Times,serif" font-size="14.00">AdminComponent</text>
</g>
<!-- AppModule -->
<g id="node13" class="node">
<title>AppModule</title>
<polygon fill="#8dd3c7" stroke="black" points="1029.66,-187 1026.66,-191 1005.66,-191 1002.66,-187 946.34,-187 946.34,-151 1029.66,-151 1029.66,-187"/>
<text text-anchor="middle" x="988" y="-164.8" font-family="Times,serif" font-size="14.00">AppModule</text>
</g>
<!-- AdminComponent&#45;&gt;AppModule -->
<g id="edge1" class="edge">
<title>AdminComponent&#45;&gt;AppModule</title>
<path fill="none" stroke="black" d="M1818,-122.09C1818,-145.13 1818,-182 1818,-182 1818,-182 1039.73,-182 1039.73,-182"/>
<polygon fill="black" stroke="black" points="1039.73,-178.5 1029.73,-182 1039.73,-185.5 1039.73,-178.5"/>
</g>
<!-- AppComponent -->
<g id="node2" class="node">
<title>AppComponent</title>
<polygon fill="#ffffb3" stroke="black" points="1739.94,-122 1634.06,-122 1634.06,-86 1739.94,-86 1739.94,-122"/>
<text text-anchor="middle" x="1687" y="-99.8" font-family="Times,serif" font-size="14.00">AppComponent</text>
</g>
<!-- AppComponent&#45;&gt;AppModule -->
<g id="edge2" class="edge">
<title>AppComponent&#45;&gt;AppModule</title>
<path fill="none" stroke="black" d="M1687,-122.04C1687,-143.66 1687,-177 1687,-177 1687,-177 1039.89,-177 1039.89,-177"/>
<polygon fill="black" stroke="black" points="1039.89,-173.5 1029.89,-177 1039.89,-180.5 1039.89,-173.5"/>
</g>
<!-- CategoriaComponent -->
<g id="node3" class="node">
<title>CategoriaComponent</title>
<polygon fill="#ffffb3" stroke="black" points="1615.75,-122 1480.25,-122 1480.25,-86 1615.75,-86 1615.75,-122"/>
<text text-anchor="middle" x="1548" y="-99.8" font-family="Times,serif" font-size="14.00">CategoriaComponent</text>
</g>
<!-- CategoriaComponent&#45;&gt;AppModule -->
<g id="edge3" class="edge">
<title>CategoriaComponent&#45;&gt;AppModule</title>
<path fill="none" stroke="black" d="M1548,-122.22C1548,-142.37 1548,-172 1548,-172 1548,-172 1040.09,-172 1040.09,-172"/>
<polygon fill="black" stroke="black" points="1040.09,-168.5 1030.09,-172 1040.09,-175.5 1040.09,-168.5"/>
</g>
<!-- ChefsComponent -->
<g id="node4" class="node">
<title>ChefsComponent</title>
<polygon fill="#ffffb3" stroke="black" points="1461.99,-122 1348.01,-122 1348.01,-86 1461.99,-86 1461.99,-122"/>
<text text-anchor="middle" x="1405" y="-99.8" font-family="Times,serif" font-size="14.00">ChefsComponent</text>
</g>
<!-- ChefsComponent&#45;&gt;AppModule -->
<g id="edge4" class="edge">
<title>ChefsComponent&#45;&gt;AppModule</title>
<path fill="none" stroke="black" d="M1405,-122.22C1405,-140.83 1405,-167 1405,-167 1405,-167 1039.89,-167 1039.89,-167"/>
<polygon fill="black" stroke="black" points="1039.89,-163.5 1029.89,-167 1039.89,-170.5 1039.89,-163.5"/>
</g>
<!-- FavoritesComponent -->
<g id="node5" class="node">
<title>FavoritesComponent</title>
<polygon fill="#ffffb3" stroke="black" points="1329.93,-122 1196.07,-122 1196.07,-86 1329.93,-86 1329.93,-122"/>
<text text-anchor="middle" x="1263" y="-99.8" font-family="Times,serif" font-size="14.00">FavoritesComponent</text>
</g>
<!-- FavoritesComponent&#45;&gt;AppModule -->
<g id="edge5" class="edge">
<title>FavoritesComponent&#45;&gt;AppModule</title>
<path fill="none" stroke="black" d="M1263,-122.03C1263,-139.06 1263,-162 1263,-162 1263,-162 1039.77,-162 1039.77,-162"/>
<polygon fill="black" stroke="black" points="1039.77,-158.5 1029.77,-162 1039.77,-165.5 1039.77,-158.5"/>
</g>
<!-- HomeComponent -->
<g id="node6" class="node">
<title>HomeComponent</title>
<polygon fill="#ffffb3" stroke="black" points="1178.55,-122 1063.45,-122 1063.45,-86 1178.55,-86 1178.55,-122"/>
<text text-anchor="middle" x="1121" y="-99.8" font-family="Times,serif" font-size="14.00">HomeComponent</text>
</g>
<!-- HomeComponent&#45;&gt;AppModule -->
<g id="edge6" class="edge">
<title>HomeComponent&#45;&gt;AppModule</title>
<path fill="none" stroke="black" d="M1121,-122.24C1121,-137.57 1121,-157 1121,-157 1121,-157 1039.72,-157 1039.72,-157"/>
<polygon fill="black" stroke="black" points="1039.72,-153.5 1029.72,-157 1039.72,-160.5 1039.72,-153.5"/>
</g>
<!-- LoginComponent -->
<g id="node7" class="node">
<title>LoginComponent</title>
<polygon fill="#ffffb3" stroke="black" points="1045.28,-122 930.72,-122 930.72,-86 1045.28,-86 1045.28,-122"/>
<text text-anchor="middle" x="988" y="-99.8" font-family="Times,serif" font-size="14.00">LoginComponent</text>
</g>
<!-- LoginComponent&#45;&gt;AppModule -->
<g id="edge7" class="edge">
<title>LoginComponent&#45;&gt;AppModule</title>
<path fill="none" stroke="black" d="M988,-122.11C988,-122.11 988,-140.99 988,-140.99"/>
<polygon fill="black" stroke="black" points="984.5,-140.99 988,-150.99 991.5,-140.99 984.5,-140.99"/>
</g>
<!-- NavComponent -->
<g id="node8" class="node">
<title>NavComponent</title>
<polygon fill="#ffffb3" stroke="black" points="912.15,-122 807.85,-122 807.85,-86 912.15,-86 912.15,-122"/>
<text text-anchor="middle" x="860" y="-99.8" font-family="Times,serif" font-size="14.00">NavComponent</text>
</g>
<!-- NavComponent&#45;&gt;AppModule -->
<g id="edge8" class="edge">
<title>NavComponent&#45;&gt;AppModule</title>
<path fill="none" stroke="black" d="M860,-122.24C860,-137.57 860,-157 860,-157 860,-157 936.09,-157 936.09,-157"/>
<polygon fill="black" stroke="black" points="936.09,-160.5 946.09,-157 936.09,-153.5 936.09,-160.5"/>
</g>
<!-- ProfileComponent -->
<g id="node9" class="node">
<title>ProfileComponent</title>
<polygon fill="#ffffb3" stroke="black" points="789.93,-122 670.07,-122 670.07,-86 789.93,-86 789.93,-122"/>
<text text-anchor="middle" x="730" y="-99.8" font-family="Times,serif" font-size="14.00">ProfileComponent</text>
</g>
<!-- ProfileComponent&#45;&gt;AppModule -->
<g id="edge9" class="edge">
<title>ProfileComponent&#45;&gt;AppModule</title>
<path fill="none" stroke="black" d="M730,-122.03C730,-139.06 730,-162 730,-162 730,-162 936.26,-162 936.26,-162"/>
<polygon fill="black" stroke="black" points="936.26,-165.5 946.26,-162 936.26,-158.5 936.26,-165.5"/>
</g>
<!-- RecetaCardComponent -->
<g id="node10" class="node">
<title>RecetaCardComponent</title>
<polygon fill="#ffffb3" stroke="black" points="652.13,-122 505.87,-122 505.87,-86 652.13,-86 652.13,-122"/>
<text text-anchor="middle" x="579" y="-99.8" font-family="Times,serif" font-size="14.00">RecetaCardComponent</text>
</g>
<!-- RecetaCardComponent&#45;&gt;AppModule -->
<g id="edge10" class="edge">
<title>RecetaCardComponent&#45;&gt;AppModule</title>
<path fill="none" stroke="black" d="M579,-122.22C579,-140.83 579,-167 579,-167 579,-167 936.15,-167 936.15,-167"/>
<polygon fill="black" stroke="black" points="936.15,-170.5 946.15,-167 936.15,-163.5 936.15,-170.5"/>
</g>
<!-- RegisterComponent -->
<g id="node11" class="node">
<title>RegisterComponent</title>
<polygon fill="#ffffb3" stroke="black" points="487.98,-122 360.02,-122 360.02,-86 487.98,-86 487.98,-122"/>
<text text-anchor="middle" x="424" y="-99.8" font-family="Times,serif" font-size="14.00">RegisterComponent</text>
</g>
<!-- RegisterComponent&#45;&gt;AppModule -->
<g id="edge11" class="edge">
<title>RegisterComponent&#45;&gt;AppModule</title>
<path fill="none" stroke="black" d="M424,-122.22C424,-142.37 424,-172 424,-172 424,-172 936.07,-172 936.07,-172"/>
<polygon fill="black" stroke="black" points="936.07,-175.5 946.07,-172 936.07,-168.5 936.07,-175.5"/>
</g>
<!-- ResetPasswordComponent -->
<g id="node12" class="node">
<title>ResetPasswordComponent</title>
<polygon fill="#ffffb3" stroke="black" points="342.09,-122 175.91,-122 175.91,-86 342.09,-86 342.09,-122"/>
<text text-anchor="middle" x="259" y="-99.8" font-family="Times,serif" font-size="14.00">ResetPasswordComponent</text>
</g>
<!-- ResetPasswordComponent&#45;&gt;AppModule -->
<g id="edge12" class="edge">
<title>ResetPasswordComponent&#45;&gt;AppModule</title>
<path fill="none" stroke="black" d="M259,-122.04C259,-143.66 259,-177 259,-177 259,-177 936.19,-177 936.19,-177"/>
<polygon fill="black" stroke="black" points="936.19,-180.5 946.19,-177 936.19,-173.5 936.19,-180.5"/>
</g>
<!-- AppComponent  -->
<g id="node15" class="node">
<title>AppComponent </title>
<polygon fill="#80b1d3" stroke="black" points="1042.44,-252 933.56,-252 933.56,-216 1042.44,-216 1042.44,-252"/>
<text text-anchor="middle" x="988" y="-229.8" font-family="Times,serif" font-size="14.00">AppComponent </text>
</g>
<!-- AppModule&#45;&gt;AppComponent  -->
<g id="edge14" class="edge">
<title>AppModule&#45;&gt;AppComponent </title>
<path fill="none" stroke="black" stroke-dasharray="1,5" d="M988,-187.11C988,-187.11 988,-205.99 988,-205.99"/>
<polygon fill="black" stroke="black" points="984.5,-205.99 988,-215.99 991.5,-205.99 984.5,-205.99"/>
</g>
<!-- AppRoutingModule -->
<g id="node14" class="node">
<title>AppRoutingModule</title>
<polygon fill="#8dd3c7" stroke="black" points="152.27,-122 149.27,-126 128.27,-126 125.27,-122 23.73,-122 23.73,-86 152.27,-86 152.27,-122"/>
<text text-anchor="middle" x="88" y="-99.8" font-family="Times,serif" font-size="14.00">AppRoutingModule</text>
</g>
<!-- AppRoutingModule&#45;&gt;AppModule -->
<g id="edge13" class="edge">
<title>AppRoutingModule&#45;&gt;AppModule</title>
<path fill="none" stroke="black" d="M88,-122.09C88,-145.13 88,-182 88,-182 88,-182 936.1,-182 936.1,-182"/>
<polygon fill="black" stroke="black" points="936.1,-185.5 946.1,-182 936.1,-178.5 936.1,-185.5"/>
</g>
</g>
</svg>
